<svg version="1.1" viewBox="0.0 0.0 540.0944881889764 540.0" fill="none" stroke="none" stroke-linecap="square" stroke-miterlimit="10" xmlns:xlink="http://www.w3.org/1999/xlink" xmlns="http://www.w3.org/2000/svg"><clipPath id="g3803e25ae28_0_38.0"><path d="m0 0l540.0945 0l0 540.0l-540.0945 0l0 -540.0z" clip-rule="nonzero"/></clipPath><g clip-path="url(#g3803e25ae28_0_38.0)"><path fill="#000000" fill-opacity="0.0" d="m0 0l540.0945 0l0 540.0l-540.0945 0z" fill-rule="evenodd"/><path fill="#d9ead3" d="m182.22095 344.9979l0 0c0 -75.03174 60.825256 -135.85701 135.85703 -135.85701l0 0c36.031494 0 70.58728 14.313477 96.0654 39.791595c25.478119 25.478134 39.791595 60.03389 39.791595 96.065414l0 0c0 75.03177 -60.825256 135.85703 -135.857 135.85703l0 0c-75.03177 0 -135.85703 -60.825256 -135.85703 -135.85703z" fill-rule="evenodd"/><path stroke="#38761d" stroke-width="4.640419947506562" stroke-linejoin="round" stroke-linecap="butt" d="m182.22095 344.9979l0 0c0 -75.03174 60.825256 -135.85701 135.85703 -135.85701l0 0c36.031494 0 70.58728 14.313477 96.0654 39.791595c25.478119 25.478134 39.791595 60.03389 39.791595 96.065414l0 0c0 75.03177 -60.825256 135.85703 -135.857 135.85703l0 0c-75.03177 0 -135.85703 -60.825256 -135.85703 -135.85703z" fill-rule="evenodd"/><path fill="#000000" fill-opacity="0.0" d="m182.22095 311.25742l271.71402 0l0 192.76096l-271.71402 0z" fill-rule="evenodd"/><path fill="#38761d" d="m276.92172 357.89224l-3.21875 -24.203125l5.671875 0l0.734375 12.890625q0 1.03125 0.03125 2.015625q0.046875 0.984375 0.0625 1.96875q0.03125 0.984375 0.03125 2.09375l0.140625 0q0.15625 -1.109375 0.359375 -2.09375q0.203125 -0.984375 0.421875 -1.984375q0.21875 -1.0 0.40625 -2.0l1.640625 -6.765625l3.484375 0l1.515625 6.765625q0.21875 1.0 0.40625 1.96875q0.1875 0.953125 0.40625 1.984375q0.234375 1.015625 0.375 2.125l0.15625 0q0.03125 -1.109375 0.046875 -2.125q0.015625 -1.03125 0.03125 -1.984375q0.03125 -0.96875 0.0625 -1.96875l0.671875 -12.890625l5.3125 0l-2.96875 24.203125l-5.875 0l-1.40625 -7.5q-0.21875 -1.140625 -0.40625 -2.328125q-0.1875 -1.1875 -0.265625 -2.265625l-0.109375 0q-0.109375 1.078125 -0.265625 2.265625q-0.140625 1.1875 -0.359375 2.328125l-1.40625 7.5l-5.6875 0zm32.109375 0.453125q-2.265625 0 -4.296875 -0.78125q-2.015625 -0.78125 -3.578125 -2.359375q-1.5625 -1.578125 -2.453125 -3.890625q-0.890625 -2.328125 -0.890625 -5.375q0 -4.0 1.53125 -6.84375q1.546875 -2.84375 4.15625 -4.34375q2.625 -1.5 5.859375 -1.5q2.296875 0 4.15625 0.953125q1.859375 0.9375 3.078125 2.125l-3.0 3.375q-0.859375 -0.8125 -1.890625 -1.265625q-1.015625 -0.46875 -2.34375 -0.46875q-1.703125 0 -3.046875 0.953125q-1.328125 0.9375 -2.109375 2.6875q-0.78125 1.734375 -0.78125 4.140625q0 2.484375 0.78125 4.25q0.78125 1.765625 2.171875 2.703125q1.390625 0.921875 3.203125 0.921875q1.34375 0 2.40625 -0.59375q1.078125 -0.59375 1.96875 -1.5625l3.015625 3.296875q-1.484375 1.75 -3.5 2.671875q-2.0 0.90625 -4.4375 0.90625zm9.375 -0.453125l7.546875 -24.203125l6.53125 0l7.53125 24.203125l-5.796875 0l-3.109375 -12.25q-0.453125 -1.8125 -0.96875 -3.84375q-0.515625 -2.046875 -0.96875 -3.953125l-0.140625 0q-0.453125 1.90625 -0.9375 3.953125q-0.484375 2.03125 -0.953125 3.84375l-3.15625 12.25l-5.578125 0zm4.984375 -5.75l0 -4.265625l11.578125 0l0 4.265625l-11.578125 0zm29.6875 6.203125q-3.078125 0 -5.609375 -1.390625q-2.515625 -1.40625 -4.0 -4.171875q-1.484375 -2.765625 -1.484375 -6.84375q0 -4.046875 1.484375 -6.875q1.484375 -2.84375 4.015625 -4.328125q2.546875 -1.484375 5.65625 -1.484375q2.453125 0 4.1875 0.953125q1.75 0.9375 2.90625 2.125l-3.0 3.375q-0.78125 -0.78125 -1.71875 -1.25q-0.921875 -0.484375 -2.375 -0.484375q-1.546875 0 -2.8125 0.953125q-1.265625 0.9375 -1.984375 2.6875q-0.71875 1.734375 -0.71875 4.140625q0 2.484375 0.625 4.25q0.625 1.765625 1.921875 2.703125q1.3125 0.921875 3.203125 0.921875q0.703125 0 1.34375 -0.1875q0.65625 -0.1875 1.03125 -0.5625l0 -4.15625l-3.53125 0l0 -4.453125l8.421875 0l0 11.140625q-1.21875 1.140625 -3.25 2.046875q-2.015625 0.890625 -4.3125 0.890625z" fill-rule="nonzero"/><path fill="#38761d" d="m250.86064 385.5489l0 -3.4375l15.23439 0l0 3.4375l-15.23439 0zm0 7.6875l0 -3.4375l15.23439 0l0 3.4375l-15.23439 0zm39.934464 5.359375l0 -23.203125l4.875 0l0 13.40625l0.125 0l6.03125 -6.625l5.328125 0l-11.484375 12.28125l0 4.140625l-4.875 0zm11.59375 0l-4.765625 -7.453125l2.78125 -3.015625l7.25 10.46875l-5.265625 0zm8.146912 0l0 -16.421875l3.96875 0l0.359375 2.1875l0.140625 0q1.046875 -1.0625 2.421875 -1.8125q1.375 -0.765625 3.234375 -0.765625q2.78125 0 4.0625 1.78125q1.296875 1.78125 1.296875 4.90625l0 10.125l-4.859375 0l0 -9.5q0 -1.65625 -0.546875 -2.421875q-0.546875 -0.765625 -1.875 -0.765625q-0.984375 0 -1.734375 0.453125q-0.75 0.453125 -1.609375 1.28125l0 10.953125l-4.859375 0zm27.412537 0.390625q-2.15625 0 -4.078125 -1.0q-1.921875 -1.015625 -3.109375 -2.953125q-1.1875 -1.9375 -1.1875 -4.65625q0 -2.703125 1.1875 -4.640625q1.1875 -1.9375 3.109375 -2.9375q1.921875 -1.015625 4.078125 -1.015625q2.140625 0 4.0625 1.015625q1.921875 1.0 3.109375 2.9375q1.203125 1.9375 1.203125 4.640625q0 2.71875 -1.203125 4.65625q-1.1875 1.9375 -3.109375 2.953125q-1.921875 1.0 -4.0625 1.0zm0 -3.9375q1.125 0 1.859375 -0.5625q0.75 -0.5625 1.125 -1.609375q0.390625 -1.0625 0.390625 -2.5q0 -1.421875 -0.390625 -2.46875q-0.375 -1.0625 -1.125 -1.625q-0.734375 -0.5625 -1.859375 -0.5625q-1.125 0 -1.875 0.5625q-0.75 0.5625 -1.125 1.625q-0.375 1.046875 -0.375 2.46875q0 1.4375 0.375 2.5q0.375 1.046875 1.125 1.609375q0.75 0.5625 1.875 0.5625zm12.740662 3.546875l-2.6875 -16.421875l4.703125 0l1.03125 7.609375q0.171875 1.203125 0.28125 2.40625q0.109375 1.203125 0.25 2.46875l0.09375 0q0.171875 -1.265625 0.34375 -2.484375q0.1875 -1.21875 0.421875 -2.390625l1.03125 -5.421875l3.53125 0l1.0625 5.421875q0.234375 1.203125 0.453125 2.40625q0.21875 1.203125 0.375 2.46875l0.140625 0q0.15625 -1.265625 0.234375 -2.46875q0.09375 -1.203125 0.21875 -2.40625l0.9375 -7.609375l4.5 0l-2.515625 16.421875l-5.734375 0l-0.890625 -5.328125q-0.125 -1.09375 -0.28125 -2.28125q-0.140625 -1.203125 -0.3125 -2.59375l-0.140625 0q-0.09375 1.03125 -0.234375 2.171875q-0.125 1.140625 -0.328125 2.703125l-0.859375 5.328125l-5.625 0zm19.443787 0l0 -16.421875l3.96875 0l0.359375 2.1875l0.140625 0q1.046875 -1.0625 2.421875 -1.8125q1.375 -0.765625 3.234375 -0.765625q2.78125 0 4.0625 1.78125q1.296875 1.78125 1.296875 4.90625l0 10.125l-4.859375 0l0 -9.5q0 -1.65625 -0.546875 -2.421875q-0.546875 -0.765625 -1.875 -0.765625q-0.984375 0 -1.734375 0.453125q-0.75 0.453125 -1.609375 1.28125l0 10.953125l-4.859375 0z" fill-rule="nonzero"/><path fill="#38761d" d="m267.6841 438.3393l0 -12.609375l-6.625 0l0 -3.8125l11.5 0l0 16.421875l-4.875 0zm2.21875 -19.0q-1.390625 0 -2.328125 -0.8125q-0.921875 -0.8125 -0.921875 -2.140625q0 -1.359375 0.921875 -2.203125q0.9375 -0.84375 2.328125 -0.84375q1.421875 0 2.328125 0.84375q0.90625 0.84375 0.90625 2.203125q0 1.328125 -0.90625 2.140625q-0.90625 0.8125 -2.328125 0.8125zm18.240662 19.390625q-2.1875 0 -4.34375 -0.734375q-2.140625 -0.75 -3.703125 -1.78125l2.09375 -3.046875q1.484375 0.96875 3.15625 1.46875q1.671875 0.484375 3.46875 0.484375q1.34375 0 1.96875 -0.40625q0.640625 -0.421875 0.640625 -0.984375q0 -0.359375 -0.1875 -0.609375q-0.171875 -0.25 -0.625 -0.453125q-0.453125 -0.21875 -1.234375 -0.421875q-0.765625 -0.203125 -2.0 -0.46875q-3.34375 -0.71875 -4.796875 -1.96875q-1.453125 -1.265625 -1.453125 -3.15625q0 -2.3125 2.015625 -3.71875q2.03125 -1.40625 5.53125 -1.40625q2.21875 0 4.015625 0.71875q1.8125 0.703125 3.109375 1.53125l-2.1875 2.90625q-1.234375 -0.765625 -2.625 -1.15625q-1.390625 -0.390625 -2.734375 -0.390625q-0.765625 0 -1.265625 0.15625q-0.5 0.140625 -0.765625 0.453125q-0.265625 0.3125 -0.265625 0.671875q0 0.671875 0.859375 0.984375q0.875 0.3125 2.953125 0.765625q2.515625 0.5625 3.9375 1.296875q1.421875 0.734375 1.96875 1.6875q0.546875 0.9375 0.546875 2.28125q0 1.5 -0.90625 2.6875q-0.90625 1.1875 -2.71875 1.90625q-1.796875 0.703125 -4.453125 0.703125zm19.865662 0q-2.1875 0 -4.34375 -0.734375q-2.140625 -0.75 -3.703125 -1.78125l2.09375 -3.046875q1.484375 0.96875 3.15625 1.46875q1.671875 0.484375 3.46875 0.484375q1.34375 0 1.96875 -0.40625q0.640625 -0.421875 0.640625 -0.984375q0 -0.359375 -0.1875 -0.609375q-0.171875 -0.25 -0.625 -0.453125q-0.453125 -0.21875 -1.234375 -0.421875q-0.765625 -0.203125 -2.0 -0.46875q-3.34375 -0.71875 -4.796875 -1.96875q-1.453125 -1.265625 -1.453125 -3.15625q0 -2.3125 2.015625 -3.71875q2.03125 -1.40625 5.53125 -1.40625q2.21875 0 4.015625 0.71875q1.8125 0.703125 3.109375 1.53125l-2.1875 2.90625q-1.234375 -0.765625 -2.625 -1.15625q-1.390625 -0.390625 -2.734375 -0.390625q-0.765625 0 -1.265625 0.15625q-0.5 0.140625 -0.765625 0.453125q-0.265625 0.3125 -0.265625 0.671875q0 0.671875 0.859375 0.984375q0.875 0.3125 2.953125 0.765625q2.515625 0.5625 3.9375 1.296875q1.421875 0.734375 1.96875 1.6875q0.546875 0.9375 0.546875 2.28125q0 1.5 -0.90625 2.6875q-0.90625 1.1875 -2.71875 1.90625q-1.796875 0.703125 -4.453125 0.703125zm17.459412 0q-2.828125 0 -4.09375 -1.78125q-1.25 -1.78125 -1.25 -4.90625l0 -10.125l4.875 0l0 9.5q0 1.65625 0.515625 2.421875q0.515625 0.765625 1.859375 0.765625q0.9375 0 1.65625 -0.390625q0.734375 -0.40625 1.5625 -1.5l0 -10.796875l4.859375 0l0 16.421875l-3.96875 0l-0.359375 -2.34375l-0.140625 0q-1.09375 1.21875 -2.421875 1.984375q-1.3125 0.75 -3.09375 0.75zm23.396912 0q-2.546875 0 -4.625 -1.0q-2.0625 -1.015625 -3.265625 -2.953125q-1.203125 -1.9375 -1.203125 -4.65625q0 -2.671875 1.21875 -4.609375q1.21875 -1.9375 3.171875 -2.953125q1.953125 -1.03125 4.140625 -1.03125q2.546875 0 4.265625 1.046875q1.734375 1.03125 2.609375 2.8125q0.875 1.765625 0.875 4.015625q0 0.65625 -0.09375 1.28125q-0.078125 0.609375 -0.140625 0.90625l-12.4375 0l0 -3.28125l9.15625 0l-0.75 0.921875q0 -1.984375 -0.84375 -2.984375q-0.84375 -1.015625 -2.46875 -1.015625q-1.1875 0 -2.09375 0.53125q-0.890625 0.53125 -1.390625 1.625q-0.484375 1.09375 -0.484375 2.734375q0 1.703125 0.59375 2.78125q0.59375 1.0625 1.71875 1.59375q1.125 0.53125 2.71875 0.53125q1.125 0 2.125 -0.296875q1.015625 -0.296875 2.109375 -0.859375l1.625 2.953125q-1.421875 0.890625 -3.15625 1.40625q-1.71875 0.5 -3.375 0.5zm18.740662 0q-2.1875 0 -4.34375 -0.734375q-2.140625 -0.75 -3.703125 -1.78125l2.09375 -3.046875q1.484375 0.96875 3.15625 1.46875q1.671875 0.484375 3.46875 0.484375q1.34375 0 1.96875 -0.40625q0.640625 -0.421875 0.640625 -0.984375q0 -0.359375 -0.1875 -0.609375q-0.171875 -0.25 -0.625 -0.453125q-0.453125 -0.21875 -1.234375 -0.421875q-0.765625 -0.203125 -2.0 -0.46875q-3.34375 -0.71875 -4.796875 -1.96875q-1.453125 -1.265625 -1.453125 -3.15625q0 -2.3125 2.015625 -3.71875q2.03125 -1.40625 5.53125 -1.40625q2.21875 0 4.015625 0.71875q1.8125 0.703125 3.109375 1.53125l-2.1875 2.90625q-1.234375 -0.765625 -2.625 -1.15625q-1.390625 -0.390625 -2.734375 -0.390625q-0.765625 0 -1.265625 0.15625q-0.5 0.140625 -0.765625 0.453125q-0.265625 0.3125 -0.265625 0.671875q0 0.671875 0.859375 0.984375q0.875 0.3125 2.953125 0.765625q2.515625 0.5625 3.9375 1.296875q1.421875 0.734375 1.96875 1.6875q0.546875 0.9375 0.546875 2.28125q0 1.5 -0.90625 2.6875q-0.90625 1.1875 -2.71875 1.90625q-1.796875 0.703125 -4.453125 0.703125z" fill-rule="nonzero"/><path fill="#ff00ff" d="m141.50656 224.5853l0 0c0 -3.1484528 2.5523224 -5.700775 5.7007904 -5.700775l0 0c1.5119476 0 2.9619598 0.60061646 4.031067 1.6697083c1.069107 1.069107 1.6697235 2.5191345 1.6697235 4.031067l0 0c0 3.148468 -2.5523376 5.7007904 -5.7007904 5.7007904l0 0c-3.148468 0 -5.7007904 -2.5523224 -5.7007904 -5.7007904z" fill-rule="evenodd"/><path fill="#000000" fill-opacity="0.0" d="m118.75901 258.9451l24.409447 -30.330719" fill-rule="evenodd"/><path stroke="#ff00ff" stroke-width="4.0" stroke-linejoin="round" stroke-linecap="butt" d="m118.75901 258.9451l9.362373 -11.633514" fill-rule="evenodd"/><path fill="#ff00ff" stroke="#ff00ff" stroke-width="4.0" stroke-linecap="butt" d="m133.26851 251.45387l6.233719 -18.28392l-16.52797 9.999344z" fill-rule="evenodd"/><path fill="#000000" fill-opacity="0.0" d="m-17.099258 258.9451l271.71655 0l0 102.77164l-271.71655 0z" fill-rule="evenodd"/><path fill="#ff00ff" d="m86.51206 301.7399l0 -17.484375l-6.453125 0l0 -4.109375l17.8125 0l0 4.109375l-6.453125 0l0 17.484375l-4.90625 0zm14.771912 0l0 -23.203125l4.859375 0l0 5.6875l-0.265625 3.140625l0.09375 0q0.9375 -0.953125 2.265625 -1.6875q1.34375 -0.75 3.2031326 -0.75q2.78125 0 4.046875 1.78125q1.28125 1.78125 1.28125 4.90625l0 10.125l-4.859375 0l0 -9.5q0 -1.65625 -0.546875 -2.421875q-0.5468826 -0.765625 -1.8750076 -0.765625q-0.984375 0 -1.734375 0.453125q-0.75 0.453125 -1.609375 1.28125l0 10.953125l-4.859375 0zm26.67817 0l0 -12.609375l-6.625 0l0 -3.8125l11.5 0l0 16.421875l-4.875 0zm2.21875 -19.0q-1.390625 0 -2.328125 -0.8125q-0.921875 -0.8125 -0.921875 -2.140625q0 -1.359375 0.921875 -2.203125q0.9375 -0.84375 2.328125 -0.84375q1.421875 0 2.328125 0.84375q0.90625 0.84375 0.90625 2.203125q0 1.328125 -0.90625 2.140625q-0.90625 0.8125 -2.328125 0.8125zm18.240662 19.390625q-2.1875 0 -4.34375 -0.734375q-2.140625 -0.75 -3.703125 -1.78125l2.09375 -3.046875q1.484375 0.96875 3.15625 1.46875q1.671875 0.484375 3.46875 0.484375q1.34375 0 1.96875 -0.40625q0.640625 -0.421875 0.640625 -0.984375q0 -0.359375 -0.1875 -0.609375q-0.171875 -0.25 -0.625 -0.453125q-0.453125 -0.21875 -1.234375 -0.421875q-0.765625 -0.203125 -2.0 -0.46875q-3.34375 -0.71875 -4.796875 -1.96875q-1.453125 -1.265625 -1.453125 -3.15625q0 -2.3125 2.015625 -3.71875q2.03125 -1.40625 5.53125 -1.40625q2.21875 0 4.015625 0.71875q1.8125 0.703125 3.109375 1.53125l-2.1875 2.90625q-1.234375 -0.765625 -2.625 -1.15625q-1.390625 -0.390625 -2.734375 -0.390625q-0.765625 0 -1.265625 0.15625q-0.5 0.140625 -0.765625 0.453125q-0.265625 0.3125 -0.265625 0.671875q0 0.671875 0.859375 0.984375q0.875 0.3125 2.953125 0.765625q2.515625 0.5625 3.9375 1.296875q1.421875 0.734375 1.96875 1.6875q0.546875 0.9375 0.546875 2.28125q0 1.5 -0.90625 2.6875q-0.90625 1.1875 -2.71875 1.90625q-1.796875 0.703125 -4.453125 0.703125z" fill-rule="nonzero"/><path fill="#ff00ff" d="m78.29798 341.48343l0 -12.609375l-6.625 0l0 -3.8125l11.5 0l0 16.421875l-4.875 0zm2.21875 -19.0q-1.390625 0 -2.328125 -0.8125q-0.921875 -0.8125 -0.921875 -2.140625q0 -1.359375 0.921875 -2.203125q0.9375 -0.84375 2.328125 -0.84375q1.421875 0 2.328125 0.84375q0.90625 0.84375 0.90625 2.203125q0 1.328125 -0.90625 2.140625q-0.90625 0.8125 -2.328125 0.8125zm18.240662 19.390625q-2.1875 0 -4.34375 -0.734375q-2.140625 -0.75 -3.703125 -1.78125l2.09375 -3.046875q1.484375 0.96875 3.15625 1.46875q1.671875 0.484375 3.46875 0.484375q1.34375 0 1.96875 -0.40625q0.640625 -0.421875 0.640625 -0.984375q0 -0.359375 -0.1875 -0.609375q-0.171875 -0.25 -0.625 -0.453125q-0.453125 -0.21875 -1.234375 -0.421875q-0.765625 -0.203125 -2.0 -0.46875q-3.34375 -0.71875 -4.796875 -1.96875q-1.453125 -1.265625 -1.453125 -3.15625q0 -2.3125 2.015625 -3.71875q2.03125 -1.40625 5.53125 -1.40625q2.21875 0 4.015625 0.71875q1.8125 0.703125 3.109375 1.53125l-2.1875 2.90625q-1.234375 -0.765625 -2.625 -1.15625q-1.390625 -0.390625 -2.734375 -0.390625q-0.765625 0 -1.265625 0.15625q-0.5 0.140625 -0.765625 0.453125q-0.265625 0.3125 -0.265625 0.671875q0 0.671875 0.859375 0.984375q0.875 0.3125 2.953125 0.765625q2.515625 0.5625 3.9375 1.296875q1.421875 0.734375 1.96875 1.6875q0.546875 0.9375 0.546875 2.28125q0 1.5 -0.90625 2.6875q-0.90625 1.1875 -2.71875 1.90625q-1.796875 0.703125 -4.453125 0.703125zm19.86567 0q-2.1875 0 -4.34375 -0.734375q-2.140625 -0.75 -3.7031326 -1.78125l2.0937576 -3.046875q1.484375 0.96875 3.15625 1.46875q1.671875 0.484375 3.46875 0.484375q1.34375 0 1.96875 -0.40625q0.640625 -0.421875 0.640625 -0.984375q0 -0.359375 -0.1875 -0.609375q-0.171875 -0.25 -0.625 -0.453125q-0.453125 -0.21875 -1.234375 -0.421875q-0.765625 -0.203125 -2.0 -0.46875q-3.34375 -0.71875 -4.796875 -1.96875q-1.453125 -1.265625 -1.453125 -3.15625q0 -2.3125 2.015625 -3.71875q2.03125 -1.40625 5.53125 -1.40625q2.21875 0 4.015625 0.71875q1.8125 0.703125 3.109375 1.53125l-2.1875 2.90625q-1.234375 -0.765625 -2.625 -1.15625q-1.390625 -0.390625 -2.734375 -0.390625q-0.765625 0 -1.265625 0.15625q-0.5 0.140625 -0.765625 0.453125q-0.265625 0.3125 -0.265625 0.671875q0 0.671875 0.859375 0.984375q0.875 0.3125 2.953125 0.765625q2.515625 0.5625 3.9375 1.296875q1.421875 0.734375 1.96875 1.6875q0.546875 0.9375 0.546875 2.28125q0 1.5 -0.90625 2.6875q-0.90625 1.1875 -2.71875 1.90625q-1.796875 0.703125 -4.453125 0.703125zm17.459412 0q-2.828125 0 -4.09375 -1.78125q-1.25 -1.78125 -1.25 -4.90625l0 -10.125l4.875 0l0 9.5q0 1.65625 0.515625 2.421875q0.515625 0.765625 1.859375 0.765625q0.9375 0 1.65625 -0.390625q0.734375 -0.40625 1.5625 -1.5l0 -10.796875l4.859375 0l0 16.421875l-3.96875 0l-0.359375 -2.34375l-0.140625 0q-1.09375 1.21875 -2.421875 1.984375q-1.3125 0.75 -3.09375 0.75zm23.396912 0q-2.546875 0 -4.625 -1.0q-2.0625 -1.015625 -3.265625 -2.953125q-1.203125 -1.9375 -1.203125 -4.65625q0 -2.671875 1.21875 -4.609375q1.21875 -1.9375 3.171875 -2.953125q1.953125 -1.03125 4.140625 -1.03125q2.546875 0 4.265625 1.046875q1.734375 1.03125 2.609375 2.8125q0.875 1.765625 0.875 4.015625q0 0.65625 -0.09375 1.28125q-0.078125 0.609375 -0.140625 0.90625l-12.4375 0l0 -3.28125l9.15625 0l-0.75 0.921875q0 -1.984375 -0.84375 -2.984375q-0.84375 -1.015625 -2.46875 -1.015625q-1.1875 0 -2.09375 0.53125q-0.890625 0.53125 -1.390625 1.625q-0.484375 1.09375 -0.484375 2.734375q0 1.703125 0.59375 2.78125q0.59375 1.0625 1.71875 1.59375q1.125 0.53125 2.71875 0.53125q1.125 0 2.125 -0.296875q1.015625 -0.296875 2.109375 -0.859375l1.625 2.953125q-1.421875 0.890625 -3.15625 1.40625q-1.71875 0.5 -3.375 0.5z" fill-rule="nonzero"/></g></svg>